PathFileType	4	(X/Y/Z)	G:\Shared drives\HPL_Drive\Nord Sprinting Study\Kristen_Nord_test\Trimmed_Nord000002.trc
DataRate	CameraRate	NumFrames	NumMarkers	Units	OrigDataRate	OrigDataStartFrame	OrigNumFrames
200.00	200.00	      5	52	mm	200.00	543	      2170
Frame#	Time	C7			R_Shoulder			L_Shoulder			Sternum			R_humerus			R_elbow_med			R_elbow_lat			R_forearm			R_wrist_radius			R_wrist_ulna			L_humerus			L_elbow_med			L_elbow_lat			L_forearm			L_wrist_radius			L_wrist_ulna			r.ASIS			r.PSIS			r_IC			L.ASIS			L.PSIS			l_IC			r_thigh1			r_thigh2			r_thigh3			r_thigh4			r_thigh5			r_knee			r_mknee			r_shank_antsup			r_sh2			r_sh3			r_sh4			r_ankle			r_mankle			r_calc			r_5meta			r_toe			L_thigh1			L_thigh2			L_thigh3			L_thigh4			L_knee			L_mknee			L_shank_antsup			L_sh2			L_sh3			L_ankle			L_mankle			L_calc			L_5meta			L_toe			
		X1	Y1	Z1	X2	Y2	Z2	X3	Y3	Z3	X4	Y4	Z4	X5	Y5	Z5	X6	Y6	Z6	X7	Y7	Z7	X8	Y8	Z8	X9	Y9	Z9	X10	Y10	Z10	X11	Y11	Z11	X12	Y12	Z12	X13	Y13	Z13	X14	Y14	Z14	X15	Y15	Z15	X16	Y16	Z16	X17	Y17	Z17	X18	Y18	Z18	X19	Y19	Z19	X20	Y20	Z20	X21	Y21	Z21	X22	Y22	Z22	X23	Y23	Z23	X24	Y24	Z24	X25	Y25	Z25	X26	Y26	Z26	X27	Y27	Z27	X28	Y28	Z28	X29	Y29	Z29	X30	Y30	Z30	X31	Y31	Z31	X32	Y32	Z32	X33	Y33	Z33	X34	Y34	Z34	X35	Y35	Z35	X36	Y36	Z36	X37	Y37	Z37	X38	Y38	Z38	X39	Y39	Z39	X40	Y40	Z40	X41	Y41	Z41	X42	Y42	Z42	X43	Y43	Z43	X44	Y44	Z44	X45	Y45	Z45	X46	Y46	Z46	X47	Y47	Z47	X48	Y48	Z48	X49	Y49	Z49	X50	Y50	Z50	X51	Y51	Z51	X52	Y52	Z52	

543	2.710	1200.87927	405.68066	1281.81714	1323.05432	448.70529	1283.34033	1072.48462	456.30478	1295.59924	1199.83032	536.30103	1232.35803	1496.93140	410.83759	1254.08435	1628.41565	435.82275	1171.54187	1621.31702	369.43011	1213.26721	1625.22339	424.47748	1331.40125	1603.73254	506.55316	1414.95911	1643.28394	482.63300	1427.38074	870.02997	433.33347	1279.35510	754.02118	479.45602	1208.45300	750.26013	413.92227	1247.94897	793.81519	480.90765	1374.07495	790.35974	546.12360	1448.09570	844.62219	537.51575	1437.42822	1314.29138	498.97253	764.52625	1266.12317	333.79489	860.12384	1350.15771	443.29697	860.94464	1074.72974	489.05627	760.72266	1151.58325	332.10641	853.33563	1050.69800	442.55676	847.62500	1381.08325	430.68845	520.38458	1381.24133	409.98346	407.10266	1397.08948	358.16791	388.08578	1391.47546	325.02539	542.95917	1372.14355	306.32220	425.63678	1381.93091	348.61740	309.86584	1254.24414	331.62662	317.63409	1393.75281	218.62178	304.71625	1380.48047	101.47033	314.36304	1394.04993	222.67610	384.44012	1378.46106	108.88102	397.18228	1361.64673	-67.06275	368.41144	1285.91003	-52.41923	336.26294	1303.32532	-89.05051	423.05658	1376.06897	-149.49081	271.27261	1343.39990	-123.98164	217.55170	1010.67554	422.36053	518.19971	1008.23431	395.63171	382.67032	1009.19226	307.58231	546.72021	1021.58130	285.83188	410.70676	999.57977	316.49063	326.62299	1128.34875	319.36954	305.40228	987.08252	205.73914	317.09421	1007.67761	217.18782	406.10129	1023.62994	96.95827	407.98233	1032.14001	-88.02299	383.06528	1102.96497	-61.29731	329.95761	1089.90503	-102.01783	424.76483	1013.94861	-165.56259	267.01819	1050.34131	-136.68314	211.43581	
544	2.715	1200.94678	406.11447	1281.76282	1323.07141	449.11917	1283.30005	1072.50452	456.74805	1295.51257	1199.88513	536.72522	1232.21179	1496.99817	411.16040	1254.00281	1628.45654	436.28812	1171.50012	1621.35034	369.86743	1213.19995	1624.52502	425.13223	1331.41907	1603.71155	507.17645	1414.87122	1643.31433	483.26968	1427.28259	870.04626	433.73630	1279.23987	754.05469	479.76682	1208.31775	750.29242	414.28107	1247.82007	793.86584	481.31180	1373.91382	790.38928	546.56097	1447.90125	844.65759	537.99432	1437.19873	1314.29944	499.22046	764.45154	1266.17078	334.07211	860.13452	1350.18652	443.59467	860.86597	1074.71338	489.19403	760.64606	1151.65637	332.35037	853.33020	1050.71851	442.76010	847.59003	1381.13159	430.82932	520.35168	1381.26770	410.04672	407.04001	1396.77490	357.89755	387.94849	1391.48572	325.16663	542.96356	1372.18933	306.45258	425.63773	1381.93945	348.66562	309.83295	1254.27063	331.68265	317.62070	1393.75586	218.66841	304.69495	1380.57324	101.47478	314.43646	1394.11841	222.67432	384.50223	1378.59692	108.89542	397.20084	1361.77417	-67.02116	368.52200	1286.05627	-52.42246	336.42691	1303.45862	-88.92325	423.20288	1376.21204	-149.53311	271.44638	1343.54602	-124.09846	217.76216	1010.69409	422.37680	518.15894	1008.23560	395.63068	382.65768	1009.22211	307.65884	546.76978	1021.59760	285.89200	410.74173	999.56464	316.49496	326.63898	1128.36182	319.33282	305.40707	987.08319	205.70313	317.12204	1007.65881	217.20947	406.14948	1023.63440	96.94548	408.01733	1032.18494	-88.01978	383.09378	1102.92078	-61.29873	329.95035	1089.99951	-102.00443	424.77890	1014.02844	-165.58220	267.06760	1050.39502	-136.75748	211.53453	
545	2.720	1200.97034	406.48517	1281.71973	1323.09692	449.58081	1283.23328	1072.43701	456.99640	1295.59119	1199.89600	537.10278	1232.09692	1497.01099	411.74066	1253.97571	1628.52551	436.73819	1171.42712	1621.38245	370.33450	1213.20374	1624.63489	425.74802	1331.33557	1603.73633	507.77283	1414.79578	1643.34290	483.91479	1427.19092	870.10193	434.14801	1279.12500	754.07947	480.08191	1208.17456	750.35199	414.62628	1247.69421	793.94507	481.73712	1373.72009	790.43152	547.00592	1447.72998	844.66736	538.49170	1436.99402	1314.32458	499.46729	764.36688	1266.24438	334.35474	860.12665	1350.19031	443.88159	860.77502	1074.71790	489.31818	760.60199	1151.72363	332.60400	853.35858	1050.71765	442.92697	847.56042	1381.13074	430.96353	520.27686	1381.27307	410.17603	406.98828	1396.80261	357.96155	387.94513	1391.54321	325.33356	542.95850	1372.32104	306.71375	425.50009	1381.94849	348.69769	309.79260	1254.26587	331.65897	317.64832	1394.01685	218.99368	304.78531	1380.63660	101.51670	314.48010	1394.05042	222.76663	384.65540	1379.59412	109.03146	396.97223	1361.90625	-66.90974	368.59445	1286.18433	-52.42634	336.55942	1303.58618	-88.78244	423.33694	1376.35449	-149.56377	271.64511	1343.68762	-124.20528	217.90399	1010.71027	422.44705	518.10358	1008.23035	395.61725	382.64917	1009.26154	307.76038	546.77148	1021.65076	285.89780	410.74844	999.59656	316.49893	326.62573	1128.37061	319.35907	305.40665	987.08002	205.74918	317.04456	1007.66284	217.21483	406.16119	1023.66034	96.95969	408.04459	1032.22314	-88.03199	383.15540	1102.99585	-61.22894	329.97217	1089.98828	-101.96487	424.86224	1014.05804	-165.67184	267.10910	1050.41064	-136.82776	211.61287	
546	2.725	1200.96985	406.85562	1281.59998	1323.13147	449.98077	1283.19165	1072.46423	457.35507	1295.52893	1199.90125	537.52740	1231.98193	1497.01428	412.17563	1253.97327	1628.74841	437.15424	1171.18506	1621.41992	370.78931	1213.18701	1625.37781	426.11340	1331.27173	1603.72913	508.39655	1414.69568	1643.38794	484.52588	1427.09180	870.16174	434.54529	1279.00134	754.10278	480.38760	1208.04358	750.36731	414.96927	1247.60681	793.96252	482.12784	1373.57690	790.47076	547.44958	1447.54614	844.67798	538.94330	1436.80396	1314.25928	499.74716	764.24689	1266.29443	334.68494	860.11108	1350.21558	444.18723	860.70068	1074.72778	489.44122	760.54248	1151.82227	332.98837	853.31488	1050.72949	443.12616	847.53827	1381.16797	431.11884	520.23425	1381.27185	410.22528	406.96130	1396.81287	358.08261	387.92383	1391.71521	325.34515	543.07776	1372.31689	306.81613	425.52988	1381.96936	348.73138	309.75650	1254.28284	331.67984	317.69263	1393.87061	218.77310	304.74399	1380.69873	101.55721	314.53021	1394.27893	222.78223	384.59650	1378.76758	109.00397	397.35254	1362.01892	-66.82426	368.67578	1286.28442	-52.44430	336.67834	1303.67480	-88.63643	423.45657	1376.49890	-149.59758	271.88583	1343.78418	-124.33491	218.09004	1010.68781	422.49838	518.09320	1008.22681	395.62634	382.65393	1009.30164	307.82159	546.81799	1021.69012	285.90173	410.79819	999.59790	316.48669	326.64758	1128.36475	319.32666	305.38010	987.11542	205.72278	317.10797	1007.66357	217.18236	406.16672	1024.40417	96.91879	407.56067	1032.24634	-88.03105	383.18271	1103.01050	-61.25057	329.96231	1090.06018	-101.95587	424.85138	1014.13593	-165.71129	267.20267	1050.48657	-136.88113	211.68301	
547	2.730	1201.04504	407.28116	1281.63806	1323.18542	450.35394	1283.08594	1072.48682	457.71216	1295.46838	1199.83484	537.87714	1231.94128	1497.05737	412.65585	1253.93591	1628.78064	437.57413	1171.10876	1621.43848	371.30371	1213.22607	1625.40771	426.66083	1331.22461	1603.74536	508.97681	1414.60986	1643.40344	485.13004	1426.96423	870.20703	434.90939	1278.88892	754.15765	480.71396	1207.90259	750.39447	415.26529	1247.53955	793.95923	482.55609	1373.42896	790.45337	547.88440	1447.39209	845.04492	539.40613	1436.59204	1314.27271	499.99710	764.11182	1266.35144	334.99176	860.10077	1350.22180	444.49265	860.63025	1074.72192	489.63086	760.45026	1151.04700	333.37720	853.09460	1050.72693	443.34705	847.49841	1381.18494	431.25400	520.18262	1381.24829	410.35577	406.92590	1396.82349	358.16537	387.92020	1391.71338	325.53214	543.08600	1372.37170	306.92139	425.53513	1381.95837	348.75281	309.78171	1254.29358	331.66519	317.72787	1394.05371	219.06761	304.81888	1380.78601	101.56854	314.63071	1394.34033	222.84413	384.63562	1378.82678	109.04257	397.37384	1362.10437	-66.70481	368.74976	1286.34790	-52.44989	336.80197	1303.72754	-88.49793	423.57190	1376.63293	-149.65149	272.11520	1343.91235	-124.45387	218.25467	1010.69696	422.57004	518.08557	1008.23541	395.64728	382.63446	1009.31641	307.92343	546.82092	1021.70215	285.95096	410.82822	999.62775	316.47269	326.61780	1128.37463	319.36911	305.43420	987.19812	205.78587	317.11359	1007.70636	217.19922	406.15283	1024.40271	96.89351	407.61771	1032.27710	-88.03202	383.21884	1103.04346	-61.28756	330.00003	1090.09583	-101.94077	424.88757	1014.17340	-165.74478	267.23480	1050.54590	-136.92542	211.71414	
